<svg xmlns="http://www.w3.org/2000/svg" viewBox="0 0 512 512" width="512" height="512">
  <defs>
    <linearGradient id="bgGrad" x1="0%" y1="0%" x2="100%" y2="100%">
      <stop offset="0%" stop-color="#15803d" />
      <stop offset="100%" stop-color="#166534" />
    </linearGradient>
    <linearGradient id="docGrad" x1="0%" y1="0%" x2="0%" y2="100%">
      <stop offset="0%" stop-color="#ffffff" />
      <stop offset="100%" stop-color="#fefce8" />
    </linearGradient>
  </defs>
  <rect width="512" height="512" rx="100" fill="url(#bgGrad)"/>
  <!-- Document Shape -->
  <path d="M 140 100 L 300 100 L 372 172 L 372 412 L 140 412 Z" fill="url(#docGrad)" rx="8" filter="drop-shadow(0 8px 16px rgba(0,0,0,0.25))"/>
  <!-- Document Fold Corner -->
  <path d="M 300 100 L 300 172 L 372 172 Z" fill="#bbf7d0"/>
  <!-- Avatar / Header -->
  <circle cx="200" cy="180" r="28" fill="#15803d"/>
  <rect x="246" y="166" width="90" height="14" rx="7" fill="#15803d"/>
  <rect x="246" y="190" width="60" height="10" rx="5" fill="#86efac"/>
  <!-- Resume lines -->
  <rect x="176" y="240" width="160" height="12" rx="6" fill="#64748b"/>
  <rect x="176" y="270" width="140" height="10" rx="5" fill="#94a3b8"/>
  <rect x="176" y="296" width="150" height="10" rx="5" fill="#94a3b8"/>
  <rect x="176" y="326" width="130" height="10" rx="5" fill="#94a3b8"/>
  <rect x="176" y="356" width="100" height="10" rx="5" fill="#eab308"/>
</svg>
